#!OML:ASF H:\Terrain\Patient Classification 1\Walking\liu\liu.ASF
:FULLY-SPECIFIED
:DEGREES
450
root 10.7569 17.4602 27.2844 5.9899 0.385594 0.901557
lowerback -5.37802 -0.44111 -1.39426
upperback -2.70588 -0.532598 1.46572
thorax 0.25889 -0.245368 2.2589
lowerneck -18.4217 -4.11487 -12.2626
upperneck 23.953 -4.99937 10.6562
head 11.4322 -2.09864 5.26652
rclavicle 1.21756e-014 -1.43125e-014
rhumerus -46.8202 10.2716 -88.9052
rradius 33.7206
rwrist -12.5614
rhand -30.7511 -28.4418
rfingers 7.12502
rthumb -4.04281 -58.3831
lclavicle 1.21756e-014 -1.43125e-014
lhumerus -29.3831 -10.7139 90.3681
lradius 20.2475
lwrist -4.99643
lhand -10.1903 -23.3117
lfingers 7.12502
lthumb 15.8004 6.06348
rfemur -17.6801 -2.32645 18.6971
rtibia 65.0218
rfoot -5.38478 -8.32975
rtoes -17.6852
lfemur -21.4099 3.68905 -26.9417
ltibia 26.7767
lfoot -11.7497 5.25816
ltoes -1.34131
451
root 10.7742 17.4611 27.4033 5.63894 0.459558 1.28101
lowerback -5.28987 -0.792719 -1.85653
upperback -2.04917 -0.982222 1.47796
thorax 0.91447 -0.48109 2.50233
lowerneck -20.2393 -4.0612 -11.8223
upperneck 24.2523 -4.83565 10.5397
head 11.8686 -1.95396 5.18784
rclavicle 1.01007e-014 -2.38542e-015
rhumerus -45.7997 10.5601 -88.6398
rradius 34.0557
rwrist -12.4111
rhand -33.8013 -25.0555
rfingers 7.12502
rthumb -6.98776 -54.9201
lclavicle 1.01007e-014 -2.38542e-015
lhumerus -27.5629 -11.1952 90.0394
lradius 20.4565
lwrist -4.9286
lhand -11.0387 -23.5313
lfingers 7.12502
lthumb 14.9832 5.90664
rfemur -18.4884 -2.19152 18.2536
rtibia 65.1176
rfoot -7.09635 -8.20258
rtoes -19.7185
lfemur -20.3389 3.74301 -27.3793
ltibia 26.5681
lfoot -12.2132 5.11083
ltoes -0.231461
452
root 10.7882 17.4623 27.5353 5.30817 0.643006 2.14418
lowerback -5.49565 -1.08303 -2.78436
upperback -1.51997 -1.31416 1.36152
thorax 1.60964 -0.662799 2.87549
lowerneck -21.023 -4.07216 -11.8533
upperneck 24.277 -4.78333 10.6567
head 12.0313 -1.89937 5.2521
rclavicle -4.37388e-014 2.78299e-015
rhumerus -45.2307 10.6655 -88.301
rradius 34.3274
rwrist -12.6528
rhand -30.4085 -31.7468
rfingers 7.12502
rthumb -3.71197 -61.6943
lclavicle -4.37388e-014 2.78299e-015
lhumerus -26.0264 -11.8894 89.8991
lradius 20.6651
lwrist -4.5813
lhand -11.1186 -23.3682
lfingers 7.12502
lthumb 14.9063 6.07548
rfemur -19.1559 -2.34354 17.2393
rtibia 65.0618
rfoot -8.71761 -8.04774
rtoes -19.4086
lfemur -19.2669 3.80125 -28.3398
ltibia 26.4105
lfoot -12.7163 4.85146
ltoes -0.0204004
453
root 10.7883 17.4678 27.643 5.33699 1.15749 2.23742
lowerback -5.75015 -1.33868 -2.90939
upperback -1.23882 -1.63957 1.34999
thorax 2.06751 -0.836896 2.902
lowerneck -21.2128 -4.05621 -11.7291
upperneck 24.2288 -4.74018 10.5292
head 12.0372 -1.879 5.18617
rclavicle -3.52843e-015 1.98785e-015
rhumerus -44.7188 10.6229 -88.2102
rradius 34.3964
rwrist -13.246
rhand -29.689 -33.4994
rfingers 7.12502
rthumb -3.01707 -63.4578
lclavicle -3.52843e-015 1.98785e-015
lhumerus -24.649 -13.0103 89.6851
lradius 20.9125
lwrist -4.14041
lhand -11.0823 -23.2644
lfingers 7.12502
lthumb 14.9412 6.17667
rfemur -20.2422 -2.48206 17.2819
rtibia 64.796
rfoot -10.0789 -8.16732
rtoes -17.5724
lfemur -18.8551 3.57856 -28.3761
ltibia 26.1994
lfoot -12.818 4.5206
ltoes 0.416236
454
root 10.7963 17.4741 27.7588 5.2281 1.31822 1.95705
lowerback -5.54404 -1.56154 -2.74549
upperback -1.24538 -1.95595 1.55071
thorax 1.97028 -0.992935 2.9975
lowerneck -21.2232 -3.82291 -11.6846
upperneck 24.1678 -4.44542 10.6326
head 11.9758 -1.72892 5.2664
rclavicle 2.0686e-015 5.56597e-015
rhumerus -44.8215 10.8235 -88.0662
rradius 34.6624
rwrist -13.6007
rhand -31.0154 -31.038
rfingers 7.12502
rthumb -4.29804 -60.9744
lclavicle 2.0686e-015 5.56597e-015
lhumerus -23.8395 -13.2811 89.4896
lradius 21.1395
lwrist -4.10271
lhand -11.4837 -23.5127
lfingers 7.12502
lthumb 14.5545 5.95672
rfemur -21.2291 -2.20204 17.6699
rtibia 64.3609
rfoot -11.0006 -8.38248
rtoes -17.1311
lfemur -18.3223 3.5244 -28.0295
ltibia 26.1604
lfoot -13.0459 4.41494
ltoes 1.23458
455
root 10.8051 17.4643 27.8693 5.2997 1.39605 1.7939
lowerback -5.47143 -1.70421 -2.57398
upperback -1.35772 -2.15944 1.6415
thorax 1.82617 -1.09029 2.98306
lowerneck -21.0857 -3.50231 -11.185
upperneck 24.3497 -4.03752 10.1149
head 11.9373 -1.56866 5.05101
rclavicle -1.15606e-014 -2.38542e-015
rhumerus -45.2209 10.8116 -87.9471
rradius 35.1863
rwrist -13.8733
rhand -31.5342 -29.6331
rfingers 7.12502
rthumb -4.79897 -59.5587
lclavicle -1.15606e-014 -2.38542e-015
lhumerus -23.1458 -13.8172 89.3099
lradius 21.3841
lwrist -3.88759
lhand -11.9461 -23.7419
lfingers 7.12502
lthumb 14.109 5.75909
rfemur -22.5 -1.86336 17.9094
rtibia 63.9277
rfoot -11.968 -8.61049
rtoes -17.2521
lfemur -18.0193 3.58812 -27.8805
ltibia 26.4653
lfoot -13.6216 4.37322
ltoes 0.682801
456
root 10.8116 17.4422 27.98 5.13211 1.51643 1.80119
lowerback -5.25937 -1.87025 -2.63801
upperback -1.28026 -2.38287 1.68889
thorax 1.80819 -1.20315 3.05643
lowerneck -22.1194 -3.74123 -10.8798
upperneck 25.1303 -4.35084 9.84486
head 12.4771 -1.69794 4.8774
rclavicle -2.35373e-014 9.54166e-015
rhumerus -45.3283 11.0216 -88.0451
rradius 35.5367
rwrist -14.5043
rhand -31.7092 -29.9729
rfingers 7.12502
rthumb -4.9679 -59.8946
lclavicle -2.35373e-014 9.54166e-015
lhumerus -22.2611 -14.7126 89.0923
lradius 21.6787
lwrist -3.26052
lhand -12.2003 -23.9188
lfingers 7.12502
lthumb 13.864 5.59915
rfemur -23.4273 -1.57017 17.9466
rtibia 63.4753
rfoot -13.1561 -8.63978
rtoes -17.9537
lfemur -17.4037 3.65054 -27.8879
ltibia 26.6629
lfoot -14.3034 4.39482
ltoes 0.661238
457
root 10.8166 17.4157 28.0867 4.79162 1.70604 1.75197
lowerback -4.84004 -2.06008 -2.69364
upperback -1.16171 -2.64446 1.79234
thorax 1.72272 -1.33488 3.18753
lowerneck -21.4521 -3.40652 -11.0627
upperneck 24.4881 -4.00395 10.4216
head 12.0632 -1.49618 5.16479
rclavicle -1.88597e-014 -1.82882e-014
rhumerus -45.3615 11.1858 -87.9854
rradius 35.9427
rwrist -15.3071
rhand -31.3108 -30.5705
rfingers 7.12502
rthumb -4.58327 -60.5009
lclavicle -1.88597e-014 -1.82882e-014
lhumerus -21.4787 -15.8522 88.9576
lradius 22.0905
lwrist -2.24018
lhand -12.6778 -24.0634
lfingers 7.12502
lthumb 13.4038 5.48541
rfemur -24.1651 -1.36515 18.0369
rtibia 63.0314
rfoot -14.3694 -8.55259
rtoes -17.6029
lfemur -16.5693 3.59777 -27.7847
ltibia 26.5944
lfoot -14.7058 4.47352
ltoes 1.5269
458
root 10.8239 17.3976 28.1974 4.67659 1.83038 1.93783
lowerback -4.68128 -2.20778 -2.87863
upperback -1.15534 -2.83613 1.7957
thorax 1.66424 -1.43071 3.28751
lowerneck -21.6515 -3.07419 -10.3477
upperneck 24.9407 -3.56696 9.66601
head 12.1895 -1.3278 4.8372
rclavicle 3.06004e-014 7.95139e-016
rhumerus -45.5808 10.8539 -87.5291
rradius 36.5436
rwrist -15.4598
rhand -30.0955 -31.3177
rfingers 7.12502
rthumb -3.4097 -61.2702
lclavicle 3.06004e-014 7.95139e-016
lhumerus -20.9255 -16.4717 88.8121
lradius 22.5785
lwrist -1.52175
lhand -12.8495 -23.8283
lfingers 7.12502
lthumb 13.2382 5.73131
rfemur -25.1519 -1.27387 17.8336
rtibia 62.4871
rfoot -15.0907 -8.56671
rtoes -15.5433
lfemur -15.9431 3.59123 -27.9676
ltibia 26.4936
lfoot -14.9109 4.46205
ltoes 2.14738
459
root 10.838 17.3834 28.3299 4.41636 2.03523 2.55857
lowerback -5.03226 -2.36583 -3.33892
upperback -0.665552 -3.00676 1.53147
thorax 2.38824 -1.53752 3.23543
lowerneck -22.0223 -3.22392 -10.7204
upperneck 24.6951 -3.82287 10.4385
head 12.2257 -1.36833 5.1567
rclavicle 3.21907e-014 7.95139e-016
rhumerus -45.1546 10.2692 -87.1742
rradius 36.8069
rwrist -15.2138
rhand -30.0361 -30.0675
rfingers 7.12502
rthumb -3.3523 -60.0209
lclavicle 3.21907e-014 7.95139e-016
lhumerus -19.6493 -16.7538 88.2538
lradius 23.0215
lwrist -1.25667
lhand -12.7025 -23.5255
lfingers 7.12502
lthumb 13.38 6.02491
rfemur -25.7837 -1.44434 17.0331
rtibia 61.7879
rfoot -15.4589 -8.35622
rtoes -15.4116
lfemur -15.0781 3.64959 -28.6512
ltibia 26.5241
lfoot -15.4183 4.15719
ltoes 2.79076
460
root 10.8435 17.3861 28.4529 4.35549 2.49507 2.60215
lowerback -6.67733 -2.52565 -3.30349
upperback 0.738961 -3.16182 1.40007
thorax 4.7742 -1.67219 2.96526
lowerneck -23.0817 -3.46878 -10.5857
upperneck 23.863 -4.08335 10.5489
head 12.1459 -1.42526 5.1044
rclavicle 5.44173e-015 2.38542e-015
rhumerus -43.0129 9.86726 -86.9556
rradius 36.6851
rwrist -15.7641
rhand -30.7548 -28.6407
rfingers 7.12502
rthumb -4.0464 -58.582
lclavicle 5.44173e-015 2.38542e-015
lhumerus -16.5044 -17.7635 87.2025
lradius 23.3071
lwrist -0.517657
lhand -12.8281 -23.5512
lfingers 7.12502
lthumb 13.2589 6.00713
rfemur -26.5443 -1.50978 16.9555
rtibia 60.8684
rfoot -16.0652 -8.29524
rtoes -17.7948
lfemur -14.4574 3.40281 -28.6606
ltibia 26.4405
lfoot -15.8679 3.87061
ltoes 3.23694
